<?xml version="1.0" encoding="UTF-8" standalone="no"?>
<!-- Created with Inkscape (http://www.inkscape.org/) -->

<svg
   xmlns:dc="http://purl.org/dc/elements/1.1/"
   xmlns:cc="http://creativecommons.org/ns#"
   xmlns:rdf="http://www.w3.org/1999/02/22-rdf-syntax-ns#"
   xmlns:svg="http://www.w3.org/2000/svg"
   xmlns="http://www.w3.org/2000/svg"
   xmlns:xlink="http://www.w3.org/1999/xlink"
   xmlns:sodipodi="http://sodipodi.sourceforge.net/DTD/sodipodi-0.dtd"
   xmlns:inkscape="http://www.inkscape.org/namespaces/inkscape"
   width="800"
   height="800"
   id="svg2"
   version="1.1"
   inkscape:version="0.48.3.1 r9886"
   sodipodi:docname="New document 1">
  <defs
     id="defs4">
    <linearGradient
       id="linearGradient3757">
      <stop
         style="stop-color:#580080;stop-opacity:0;"
         offset="0"
         id="stop3759" />
      <stop
         id="stop3765"
         offset="0.5"
         style="stop-color:#580080;stop-opacity:0.49803922;" />
      <stop
         style="stop-color:#580080;stop-opacity:0;"
         offset="1"
         id="stop3761" />
    </linearGradient>
    <linearGradient
       inkscape:collect="always"
       xlink:href="#linearGradient3757"
       id="linearGradient3763"
       x1="462.58505"
       y1="863.19806"
       x2="307.48303"
       y2="367.95996"
       gradientUnits="userSpaceOnUse"
       gradientTransform="translate(20.408164,6.8027211)" />
    <filter
       inkscape:collect="always"
       id="filter3779"
       x="-0.10369158"
       width="1.2073832"
       y="-0.14239573"
       height="1.2847915">
      <feGaussianBlur
         inkscape:collect="always"
         stdDeviation="40.559634"
         id="feGaussianBlur3781" />
    </filter>
    <filter
       inkscape:collect="always"
       id="filter3789"
       x="-0.18"
       width="1.36"
       y="-0.18"
       height="1.36">
      <feGaussianBlur
         inkscape:collect="always"
         stdDeviation="24.897958"
         id="feGaussianBlur3791" />
    </filter>
  </defs>
  <sodipodi:namedview
     id="base"
     pagecolor="#ffffff"
     bordercolor="#666666"
     borderopacity="1.0"
     inkscape:pageopacity="0.0"
     inkscape:pageshadow="2"
     inkscape:zoom="0.735"
     inkscape:cx="400"
     inkscape:cy="417.26422"
     inkscape:document-units="px"
     inkscape:current-layer="layer1"
     showgrid="false"
     inkscape:window-width="1366"
     inkscape:window-height="718"
     inkscape:window-x="0"
     inkscape:window-y="0"
     inkscape:window-maximized="1" />
  <metadata
     id="metadata7">
    <rdf:RDF>
      <cc:Work
         rdf:about="">
        <dc:format>image/svg+xml</dc:format>
        <dc:type
           rdf:resource="http://purl.org/dc/dcmitype/StillImage" />
        <dc:title></dc:title>
      </cc:Work>
    </rdf:RDF>
  </metadata>
  <g
     inkscape:label="Layer 1"
     inkscape:groupmode="layer"
     id="layer1"
     transform="translate(0,-252.36218)">
    <rect
       style="fill:#000000;fill-opacity:1;stroke:none"
       id="rect2985"
       width="800"
       height="800"
       x="0"
       y="252.36218"
       ry="0.38805676" />
    <path
       style="fill:url(#linearGradient3763);fill-opacity:1;stroke:none;filter:url(#filter3779)"
       d="m -16.32653,520.38939 c 0,0 66.666666,58.50341 170.06803,20.40817 0,0 96.59864,-66.66667 160.54422,-77.55102 63.94557,-10.88436 197.27891,-111.56463 197.27891,-111.56463 0,0 80.27211,-68.02721 155.10204,16.32653 0,0 69.38775,62.58504 136.05442,-5.44218 66.66667,-68.02721 102.04082,-51.70068 102.04082,-51.70068 l -19.04762,310.20409 c 0,0 -96.59864,-1.36055 -193.19728,77.55102 -96.59864,78.91156 -167.34694,47.61904 -167.34694,47.61904 0,0 -65.30612,-39.45578 -121.08844,-4.08163 -55.78231,35.37415 -104.7619,156.46259 -104.7619,156.46259 0,0 -57.14286,165.98641 -168.70748,57.14285 C 19.047619,846.92001 -34.013605,894.53905 -34.013605,894.53905 z"
       id="path3755"
       inkscape:connector-curvature="0" />
    <path
       sodipodi:type="star"
       style="fill:#ffffff;fill-opacity:1;fill-rule:nonzero;stroke:none;filter:url(#filter3789);opacity:0.6"
       id="path3783"
       sodipodi:sides="4"
       sodipodi:cx="306.12244"
       sodipodi:cy="401.36053"
       sodipodi:r1="165.98639"
       sodipodi:r2="70.27932"
       sodipodi:arg1="1.5707963"
       sodipodi:arg2="-0.78539817"
       inkscape:flatsided="false"
       inkscape:rounded="0"
       inkscape:randomized="0"
       d="M 306.12244,567.34692 355.81742,351.66555 140.13605,401.36054 355.81742,451.05552 306.12243,235.37415 256.42745,451.05552 472.10883,401.36053 256.42745,351.66555 z"
       transform="matrix(0.03688521,0,0,0.03688521,152.65417,402.86402)" />
    <path
       transform="matrix(0.03688521,0,0,0.03688521,310.4773,352.52388)"
       d="M 306.12244,567.34692 355.81742,351.66555 140.13605,401.36054 355.81742,451.05552 306.12243,235.37415 256.42745,451.05552 472.10883,401.36053 256.42745,351.66555 z"
       inkscape:randomized="0"
       inkscape:rounded="0"
       inkscape:flatsided="false"
       sodipodi:arg2="-0.78539817"
       sodipodi:arg1="1.5707963"
       sodipodi:r2="70.27932"
       sodipodi:r1="165.98639"
       sodipodi:cy="401.36053"
       sodipodi:cx="306.12244"
       sodipodi:sides="4"
       id="path3793"
       style="opacity:0.6;fill:#ffffff;fill-opacity:1;fill-rule:nonzero;stroke:none;filter:url(#filter3789)"
       sodipodi:type="star" />
    <path
       sodipodi:type="star"
       style="opacity:0.6;fill:#ffffff;fill-opacity:1;fill-rule:nonzero;stroke:none;filter:url(#filter3789)"
       id="path3795"
       sodipodi:sides="4"
       sodipodi:cx="306.12244"
       sodipodi:cy="401.36053"
       sodipodi:r1="165.98639"
       sodipodi:r2="70.27932"
       sodipodi:arg1="1.5707963"
       sodipodi:arg2="-0.78539817"
       inkscape:flatsided="false"
       inkscape:rounded="0"
       inkscape:randomized="0"
       d="M 306.12244,567.34692 355.81742,351.66555 140.13605,401.36054 355.81742,451.05552 306.12243,235.37415 256.42745,451.05552 472.10883,401.36053 256.42745,351.66555 z"
       transform="matrix(0.03688521,0,0,0.03688521,503.67458,494.02048)" />
    <path
       transform="matrix(0.03688521,0,0,0.03688521,183.94669,699.46266)"
       d="M 306.12244,567.34692 355.81742,351.66555 140.13605,401.36054 355.81742,451.05552 306.12243,235.37415 256.42745,451.05552 472.10883,401.36053 256.42745,351.66555 z"
       inkscape:randomized="0"
       inkscape:rounded="0"
       inkscape:flatsided="false"
       sodipodi:arg2="-0.78539817"
       sodipodi:arg1="1.5707963"
       sodipodi:r2="70.27932"
       sodipodi:r1="165.98639"
       sodipodi:cy="401.36053"
       sodipodi:cx="306.12244"
       sodipodi:sides="4"
       id="path3797"
       style="opacity:0.6;fill:#ffffff;fill-opacity:1;fill-rule:nonzero;stroke:none;filter:url(#filter3789)"
       sodipodi:type="star" />
    <path
       sodipodi:type="star"
       style="opacity:0.6;fill:#ffffff;fill-opacity:1;fill-rule:nonzero;stroke:none;filter:url(#filter3789)"
       id="path3799"
       sodipodi:sides="4"
       sodipodi:cx="306.12244"
       sodipodi:cy="401.36053"
       sodipodi:r1="165.98639"
       sodipodi:r2="70.27932"
       sodipodi:arg1="1.5707963"
       sodipodi:arg2="-0.78539817"
       inkscape:flatsided="false"
       inkscape:rounded="0"
       inkscape:randomized="0"
       d="M 306.12244,567.34692 355.81742,351.66555 140.13605,401.36054 355.81742,451.05552 306.12243,235.37415 256.42745,451.05552 472.10883,401.36053 256.42745,351.66555 z"
       transform="matrix(0.03688521,0,0,0.03688521,681.90587,850.48307)" />
    <path
       transform="matrix(0.03688521,0,0,0.03688521,619.32084,928.03409)"
       d="M 306.12244,567.34692 355.81742,351.66555 140.13605,401.36054 355.81742,451.05552 306.12243,235.37415 256.42745,451.05552 472.10883,401.36053 256.42745,351.66555 z"
       inkscape:randomized="0"
       inkscape:rounded="0"
       inkscape:flatsided="false"
       sodipodi:arg2="-0.78539817"
       sodipodi:arg1="1.5707963"
       sodipodi:r2="70.27932"
       sodipodi:r1="165.98639"
       sodipodi:cy="401.36053"
       sodipodi:cx="306.12244"
       sodipodi:sides="4"
       id="path3801"
       style="opacity:0.6;fill:#ffffff;fill-opacity:1;fill-rule:nonzero;stroke:none;filter:url(#filter3789)"
       sodipodi:type="star" />
    <path
       sodipodi:type="star"
       style="opacity:0.6;fill:#ffffff;fill-opacity:1;fill-rule:nonzero;stroke:none;filter:url(#filter3789)"
       id="path3803"
       sodipodi:sides="4"
       sodipodi:cx="306.12244"
       sodipodi:cy="401.36053"
       sodipodi:r1="165.98639"
       sodipodi:r2="70.27932"
       sodipodi:arg1="1.5707963"
       sodipodi:arg2="-0.78539817"
       inkscape:flatsided="false"
       inkscape:rounded="0"
       inkscape:randomized="0"
       d="M 306.12244,567.34692 355.81742,351.66555 140.13605,401.36054 355.81742,451.05552 306.12243,235.37415 256.42745,451.05552 472.10883,401.36053 256.42745,351.66555 z"
       transform="matrix(0.03688521,0,0,0.03688521,388.02832,967.48987)" />
    <path
       transform="matrix(0.03688521,0,0,0.03688521,741.76982,436.87763)"
       d="M 306.12244,567.34692 355.81742,351.66555 140.13605,401.36054 355.81742,451.05552 306.12243,235.37415 256.42745,451.05552 472.10883,401.36053 256.42745,351.66555 z"
       inkscape:randomized="0"
       inkscape:rounded="0"
       inkscape:flatsided="false"
       sodipodi:arg2="-0.78539817"
       sodipodi:arg1="1.5707963"
       sodipodi:r2="70.27932"
       sodipodi:r1="165.98639"
       sodipodi:cy="401.36053"
       sodipodi:cx="306.12244"
       sodipodi:sides="4"
       id="path3805"
       style="opacity:0.6;fill:#ffffff;fill-opacity:1;fill-rule:nonzero;stroke:none;filter:url(#filter3789)"
       sodipodi:type="star" />
    <path
       sodipodi:type="star"
       style="opacity:0.6;fill:#ffffff;fill-opacity:1;fill-rule:nonzero;stroke:none;filter:url(#filter3789)"
       id="path3807"
       sodipodi:sides="4"
       sodipodi:cx="306.12244"
       sodipodi:cy="401.36053"
       sodipodi:r1="165.98639"
       sodipodi:r2="70.27932"
       sodipodi:arg1="1.5707963"
       sodipodi:arg2="-0.78539817"
       inkscape:flatsided="false"
       inkscape:rounded="0"
       inkscape:randomized="0"
       d="M 306.12244,567.34692 355.81742,351.66555 140.13605,401.36054 355.81742,451.05552 306.12243,235.37415 256.42745,451.05552 472.10883,401.36053 256.42745,351.66555 z"
       transform="matrix(0.03688521,0,0,0.03688521,762.17798,262.72797)" />
    <g
       id="g3827"
       transform="matrix(0,1,-1,0,1007.4642,278.21253)">
      <path
         sodipodi:type="star"
         style="opacity:0.6;fill:#ffffff;fill-opacity:1;fill-rule:nonzero;stroke:none;filter:url(#filter3789)"
         id="path3809"
         sodipodi:sides="4"
         sodipodi:cx="306.12244"
         sodipodi:cy="401.36053"
         sodipodi:r1="165.98639"
         sodipodi:r2="70.27932"
         sodipodi:arg1="1.5707963"
         sodipodi:arg2="-0.78539817"
         inkscape:flatsided="false"
         inkscape:rounded="0"
         inkscape:randomized="0"
         d="M 306.12244,567.34692 355.81742,351.66555 140.13605,401.36054 355.81742,451.05552 306.12243,235.37415 256.42745,451.05552 472.10883,401.36053 256.42745,351.66555 z"
         transform="matrix(0,0.03688521,-0.03688521,0,83.511735,414.54017)" />
      <path
         transform="matrix(0,0.03688521,-0.03688521,0,241.33486,364.20003)"
         d="M 306.12244,567.34692 355.81742,351.66555 140.13605,401.36054 355.81742,451.05552 306.12243,235.37415 256.42745,451.05552 472.10883,401.36053 256.42745,351.66555 z"
         inkscape:randomized="0"
         inkscape:rounded="0"
         inkscape:flatsided="false"
         sodipodi:arg2="-0.78539817"
         sodipodi:arg1="1.5707963"
         sodipodi:r2="70.27932"
         sodipodi:r1="165.98639"
         sodipodi:cy="401.36053"
         sodipodi:cx="306.12244"
         sodipodi:sides="4"
         id="path3811"
         style="opacity:0.6;fill:#ffffff;fill-opacity:1;fill-rule:nonzero;stroke:none;filter:url(#filter3789)"
         sodipodi:type="star" />
      <path
         sodipodi:type="star"
         style="opacity:0.6;fill:#ffffff;fill-opacity:1;fill-rule:nonzero;stroke:none;filter:url(#filter3789)"
         id="path3813"
         sodipodi:sides="4"
         sodipodi:cx="306.12244"
         sodipodi:cy="401.36053"
         sodipodi:r1="165.98639"
         sodipodi:r2="70.27932"
         sodipodi:arg1="1.5707963"
         sodipodi:arg2="-0.78539817"
         inkscape:flatsided="false"
         inkscape:rounded="0"
         inkscape:randomized="0"
         d="M 306.12244,567.34692 355.81742,351.66555 140.13605,401.36054 355.81742,451.05552 306.12243,235.37415 256.42745,451.05552 472.10883,401.36053 256.42745,351.66555 z"
         transform="matrix(0,0.03688521,-0.03688521,0,434.53214,505.69663)" />
      <path
         transform="matrix(0,0.03688521,-0.03688521,0,114.80425,711.13881)"
         d="M 306.12244,567.34692 355.81742,351.66555 140.13605,401.36054 355.81742,451.05552 306.12243,235.37415 256.42745,451.05552 472.10883,401.36053 256.42745,351.66555 z"
         inkscape:randomized="0"
         inkscape:rounded="0"
         inkscape:flatsided="false"
         sodipodi:arg2="-0.78539817"
         sodipodi:arg1="1.5707963"
         sodipodi:r2="70.27932"
         sodipodi:r1="165.98639"
         sodipodi:cy="401.36053"
         sodipodi:cx="306.12244"
         sodipodi:sides="4"
         id="path3815"
         style="opacity:0.6;fill:#ffffff;fill-opacity:1;fill-rule:nonzero;stroke:none;filter:url(#filter3789)"
         sodipodi:type="star" />
      <path
         sodipodi:type="star"
         style="opacity:0.6;fill:#ffffff;fill-opacity:1;fill-rule:nonzero;stroke:none;filter:url(#filter3789)"
         id="path3817"
         sodipodi:sides="4"
         sodipodi:cx="306.12244"
         sodipodi:cy="401.36053"
         sodipodi:r1="165.98639"
         sodipodi:r2="70.27932"
         sodipodi:arg1="1.5707963"
         sodipodi:arg2="-0.78539817"
         inkscape:flatsided="false"
         inkscape:rounded="0"
         inkscape:randomized="0"
         d="M 306.12244,567.34692 355.81742,351.66555 140.13605,401.36054 355.81742,451.05552 306.12243,235.37415 256.42745,451.05552 472.10883,401.36053 256.42745,351.66555 z"
         transform="matrix(0,0.03688521,-0.03688521,0,612.76343,862.15922)" />
      <path
         transform="matrix(0,0.03688521,-0.03688521,0,550.1784,939.71024)"
         d="M 306.12244,567.34692 355.81742,351.66555 140.13605,401.36054 355.81742,451.05552 306.12243,235.37415 256.42745,451.05552 472.10883,401.36053 256.42745,351.66555 z"
         inkscape:randomized="0"
         inkscape:rounded="0"
         inkscape:flatsided="false"
         sodipodi:arg2="-0.78539817"
         sodipodi:arg1="1.5707963"
         sodipodi:r2="70.27932"
         sodipodi:r1="165.98639"
         sodipodi:cy="401.36053"
         sodipodi:cx="306.12244"
         sodipodi:sides="4"
         id="path3819"
         style="opacity:0.6;fill:#ffffff;fill-opacity:1;fill-rule:nonzero;stroke:none;filter:url(#filter3789)"
         sodipodi:type="star" />
      <path
         sodipodi:type="star"
         style="opacity:0.6;fill:#ffffff;fill-opacity:1;fill-rule:nonzero;stroke:none;filter:url(#filter3789)"
         id="path3821"
         sodipodi:sides="4"
         sodipodi:cx="306.12244"
         sodipodi:cy="401.36053"
         sodipodi:r1="165.98639"
         sodipodi:r2="70.27932"
         sodipodi:arg1="1.5707963"
         sodipodi:arg2="-0.78539817"
         inkscape:flatsided="false"
         inkscape:rounded="0"
         inkscape:randomized="0"
         d="M 306.12244,567.34692 355.81742,351.66555 140.13605,401.36054 355.81742,451.05552 306.12243,235.37415 256.42745,451.05552 472.10883,401.36053 256.42745,351.66555 z"
         transform="matrix(0,0.03688521,-0.03688521,0,318.88588,979.16602)" />
      <path
         transform="matrix(0,0.03688521,-0.03688521,0,672.62738,448.55378)"
         d="M 306.12244,567.34692 355.81742,351.66555 140.13605,401.36054 355.81742,451.05552 306.12243,235.37415 256.42745,451.05552 472.10883,401.36053 256.42745,351.66555 z"
         inkscape:randomized="0"
         inkscape:rounded="0"
         inkscape:flatsided="false"
         sodipodi:arg2="-0.78539817"
         sodipodi:arg1="1.5707963"
         sodipodi:r2="70.27932"
         sodipodi:r1="165.98639"
         sodipodi:cy="401.36053"
         sodipodi:cx="306.12244"
         sodipodi:sides="4"
         id="path3823"
         style="opacity:0.6;fill:#ffffff;fill-opacity:1;fill-rule:nonzero;stroke:none;filter:url(#filter3789)"
         sodipodi:type="star" />
      <path
         sodipodi:type="star"
         style="opacity:0.6;fill:#ffffff;fill-opacity:1;fill-rule:nonzero;stroke:none;filter:url(#filter3789)"
         id="path3825"
         sodipodi:sides="4"
         sodipodi:cx="306.12244"
         sodipodi:cy="401.36053"
         sodipodi:r1="165.98639"
         sodipodi:r2="70.27932"
         sodipodi:arg1="1.5707963"
         sodipodi:arg2="-0.78539817"
         inkscape:flatsided="false"
         inkscape:rounded="0"
         inkscape:randomized="0"
         d="M 306.12244,567.34692 355.81742,351.66555 140.13605,401.36054 355.81742,451.05552 306.12243,235.37415 256.42745,451.05552 472.10883,401.36053 256.42745,351.66555 z"
         transform="matrix(0,0.03688521,-0.03688521,0,693.03554,274.40412)" />
    </g>
    <path
       sodipodi:type="star"
       style="opacity:1;fill:#ffffff;fill-opacity:1;fill-rule:nonzero;stroke:none;filter:url(#filter3789)"
       id="path3838"
       sodipodi:sides="4"
       sodipodi:cx="306.12244"
       sodipodi:cy="401.36053"
       sodipodi:r1="165.98639"
       sodipodi:r2="70.27932"
       sodipodi:arg1="1.5707963"
       sodipodi:arg2="-0.78539817"
       inkscape:flatsided="false"
       inkscape:rounded="0"
       inkscape:randomized="0"
       d="M 306.12244,567.34692 355.81742,351.66555 140.13605,401.36054 355.81742,451.05552 306.12243,235.37415 256.42745,451.05552 472.10883,401.36053 256.42745,351.66555 z"
       transform="matrix(0.03688521,0,0,0.03688521,352.65417,543.00007)" />
    <path
       transform="matrix(0.03688521,0,0,0.03688521,405.71539,657.28578)"
       d="M 306.12244,567.34692 355.81742,351.66555 140.13605,401.36054 355.81742,451.05552 306.12243,235.37415 256.42745,451.05552 472.10883,401.36053 256.42745,351.66555 z"
       inkscape:randomized="0"
       inkscape:rounded="0"
       inkscape:flatsided="false"
       sodipodi:arg2="-0.78539817"
       sodipodi:arg1="1.5707963"
       sodipodi:r2="70.27932"
       sodipodi:r1="165.98639"
       sodipodi:cy="401.36053"
       sodipodi:cx="306.12244"
       sodipodi:sides="4"
       id="path3840"
       style="fill:#ffffff;fill-opacity:1;fill-rule:nonzero;stroke:none;filter:url(#filter3789)"
       sodipodi:type="star" />
    <path
       sodipodi:type="star"
       style="fill:#ffffff;fill-opacity:1;fill-rule:nonzero;stroke:none;filter:url(#filter3789)"
       id="path3842"
       sodipodi:sides="4"
       sodipodi:cx="306.12244"
       sodipodi:cy="401.36053"
       sodipodi:r1="165.98639"
       sodipodi:r2="70.27932"
       sodipodi:arg1="1.5707963"
       sodipodi:arg2="-0.78539817"
       inkscape:flatsided="false"
       inkscape:rounded="0"
       inkscape:randomized="0"
       d="M 306.12244,567.34692 355.81742,351.66555 140.13605,401.36054 355.81742,451.05552 306.12243,235.37415 256.42745,451.05552 472.10883,401.36053 256.42745,351.66555 z"
       transform="matrix(0.03688521,0,0,0.03688521,487.34804,684.49666)" />
    <path
       transform="matrix(0.03688521,0,0,0.03688521,616.59974,391.97965)"
       d="M 306.12244,567.34692 355.81742,351.66555 140.13605,401.36054 355.81742,451.05552 306.12243,235.37415 256.42745,451.05552 472.10883,401.36053 256.42745,351.66555 z"
       inkscape:randomized="0"
       inkscape:rounded="0"
       inkscape:flatsided="false"
       sodipodi:arg2="-0.78539817"
       sodipodi:arg1="1.5707963"
       sodipodi:r2="70.27932"
       sodipodi:r1="165.98639"
       sodipodi:cy="401.36053"
       sodipodi:cx="306.12244"
       sodipodi:sides="4"
       id="path3844"
       style="fill:#ffffff;fill-opacity:1;fill-rule:nonzero;stroke:none;filter:url(#filter3789)"
       sodipodi:type="star" />
    <path
       sodipodi:type="star"
       style="fill:#ffffff;fill-opacity:1;fill-rule:nonzero;stroke:none;filter:url(#filter3789)"
       id="path3846"
       sodipodi:sides="4"
       sodipodi:cx="306.12244"
       sodipodi:cy="401.36053"
       sodipodi:r1="165.98639"
       sodipodi:r2="70.27932"
       sodipodi:arg1="1.5707963"
       sodipodi:arg2="-0.78539817"
       inkscape:flatsided="false"
       inkscape:rounded="0"
       inkscape:randomized="0"
       d="M 306.12244,567.34692 355.81742,351.66555 140.13605,401.36054 355.81742,451.05552 306.12243,235.37415 256.42745,451.05552 472.10883,401.36053 256.42745,351.66555 z"
       transform="matrix(0.03688521,0,0,0.03688521,310.47729,396.06128)" />
    <path
       transform="matrix(0.03688521,0,0,0.03688521,192.10994,846.40142)"
       d="M 306.12244,567.34692 355.81742,351.66555 140.13605,401.36054 355.81742,451.05552 306.12243,235.37415 256.42745,451.05552 472.10883,401.36053 256.42745,351.66555 z"
       inkscape:randomized="0"
       inkscape:rounded="0"
       inkscape:flatsided="false"
       sodipodi:arg2="-0.78539817"
       sodipodi:arg1="1.5707963"
       sodipodi:r2="70.27932"
       sodipodi:r1="165.98639"
       sodipodi:cy="401.36053"
       sodipodi:cx="306.12244"
       sodipodi:sides="4"
       id="path3848"
       style="fill:#ffffff;fill-opacity:1;fill-rule:nonzero;stroke:none;filter:url(#filter3789)"
       sodipodi:type="star" />
    <path
       sodipodi:type="star"
       style="fill:#ffffff;fill-opacity:1;fill-rule:nonzero;stroke:none;filter:url(#filter3789)"
       id="path3850"
       sodipodi:sides="4"
       sodipodi:cx="306.12244"
       sodipodi:cy="401.36053"
       sodipodi:r1="165.98639"
       sodipodi:r2="70.27932"
       sodipodi:arg1="1.5707963"
       sodipodi:arg2="-0.78539817"
       inkscape:flatsided="false"
       inkscape:rounded="0"
       inkscape:randomized="0"
       d="M 306.12244,567.34692 355.81742,351.66555 140.13605,401.36054 355.81742,451.05552 306.12243,235.37415 256.42745,451.05552 472.10883,401.36053 256.42745,351.66555 z"
       transform="matrix(0.03688521,0,0,0.03688521,509.11674,990.61911)" />
    <path
       transform="matrix(0.03688521,0,0,0.03688521,234.28681,1015.1089)"
       d="M 306.12244,567.34692 355.81742,351.66555 140.13605,401.36054 355.81742,451.05552 306.12243,235.37415 256.42745,451.05552 472.10883,401.36053 256.42745,351.66555 z"
       inkscape:randomized="0"
       inkscape:rounded="0"
       inkscape:flatsided="false"
       sodipodi:arg2="-0.78539817"
       sodipodi:arg1="1.5707963"
       sodipodi:r2="70.27932"
       sodipodi:r1="165.98639"
       sodipodi:cy="401.36053"
       sodipodi:cx="306.12244"
       sodipodi:sides="4"
       id="path3852"
       style="fill:#ffffff;fill-opacity:1;fill-rule:nonzero;stroke:none;filter:url(#filter3789)"
       sodipodi:type="star" />
    <path
       sodipodi:type="star"
       style="fill:#ffffff;fill-opacity:1;fill-rule:nonzero;stroke:none;filter:url(#filter3789)"
       id="path3854"
       sodipodi:sides="4"
       sodipodi:cx="306.12244"
       sodipodi:cy="401.36053"
       sodipodi:r1="165.98639"
       sodipodi:r2="70.27932"
       sodipodi:arg1="1.5707963"
       sodipodi:arg2="-0.78539817"
       inkscape:flatsided="false"
       inkscape:rounded="0"
       inkscape:randomized="0"
       d="M 306.12244,567.34692 355.81742,351.66555 140.13605,401.36054 355.81742,451.05552 306.12243,235.37415 256.42745,451.05552 472.10883,401.36053 256.42745,351.66555 z"
       transform="matrix(0.03688521,0,0,0.03688521,744.49089,660.00686)" />
    <path
       transform="matrix(0.03688521,0,0,0.03688521,92.79021,253.20414)"
       d="M 306.12244,567.34692 355.81742,351.66555 140.13605,401.36054 355.81742,451.05552 306.12243,235.37415 256.42745,451.05552 472.10883,401.36053 256.42745,351.66555 z"
       inkscape:randomized="0"
       inkscape:rounded="0"
       inkscape:flatsided="false"
       sodipodi:arg2="-0.78539817"
       sodipodi:arg1="1.5707963"
       sodipodi:r2="70.27932"
       sodipodi:r1="165.98639"
       sodipodi:cy="401.36053"
       sodipodi:cx="306.12244"
       sodipodi:sides="4"
       id="path3856"
       style="fill:#ffffff;fill-opacity:1;fill-rule:nonzero;stroke:none;filter:url(#filter3789)"
       sodipodi:type="star" />
    <path
       sodipodi:type="star"
       style="fill:#ffffff;fill-opacity:1;fill-rule:nonzero;stroke:none;filter:url(#filter3789)"
       id="path3858"
       sodipodi:sides="4"
       sodipodi:cx="306.12244"
       sodipodi:cy="401.36053"
       sodipodi:r1="165.98639"
       sodipodi:r2="70.27932"
       sodipodi:arg1="1.5707963"
       sodipodi:arg2="-0.78539817"
       inkscape:flatsided="false"
       inkscape:rounded="0"
       inkscape:randomized="0"
       d="M 306.12244,567.34692 355.81742,351.66555 140.13605,401.36054 355.81742,451.05552 306.12243,235.37415 256.42745,451.05552 472.10883,401.36053 256.42745,351.66555 z"
       transform="matrix(0.03688521,0,0,0.03688521,62.858237,609.66673)" />
    <path
       transform="matrix(0.03688521,0,0,0.03688521,434.28681,325.31299)"
       d="M 306.12244,567.34692 355.81742,351.66555 140.13605,401.36054 355.81742,451.05552 306.12243,235.37415 256.42745,451.05552 472.10883,401.36053 256.42745,351.66555 z"
       inkscape:randomized="0"
       inkscape:rounded="0"
       inkscape:flatsided="false"
       sodipodi:arg2="-0.78539817"
       sodipodi:arg1="1.5707963"
       sodipodi:r2="70.27932"
       sodipodi:r1="165.98639"
       sodipodi:cy="401.36053"
       sodipodi:cx="306.12244"
       sodipodi:sides="4"
       id="path3860"
       style="fill:#ffffff;fill-opacity:1;fill-rule:nonzero;stroke:none;filter:url(#filter3789)"
       sodipodi:type="star" />
    <path
       sodipodi:type="star"
       style="fill:#ffffff;fill-opacity:1;fill-rule:nonzero;stroke:none;filter:url(#filter3789)"
       id="path3862"
       sodipodi:sides="4"
       sodipodi:cx="306.12244"
       sodipodi:cy="401.36053"
       sodipodi:r1="165.98639"
       sodipodi:r2="70.27932"
       sodipodi:arg1="1.5707963"
       sodipodi:arg2="-0.78539817"
       inkscape:flatsided="false"
       inkscape:rounded="0"
       inkscape:randomized="0"
       d="M 306.12244,567.34692 355.81742,351.66555 140.13605,401.36054 355.81742,451.05552 306.12243,235.37415 256.42745,451.05552 472.10883,401.36053 256.42745,351.66555 z"
       transform="matrix(0.05797971,0,0,0.06099321,564.564,751.01114)" />
    <path
       transform="matrix(0.05797971,0,0,0.06099321,174.08781,903.39209)"
       d="M 306.12244,567.34692 355.81742,351.66555 140.13605,401.36054 355.81742,451.05552 306.12243,235.37415 256.42745,451.05552 472.10883,401.36053 256.42745,351.66555 z"
       inkscape:randomized="0"
       inkscape:rounded="0"
       inkscape:flatsided="false"
       sodipodi:arg2="-0.78539817"
       sodipodi:arg1="1.5707963"
       sodipodi:r2="70.27932"
       sodipodi:r1="165.98639"
       sodipodi:cy="401.36053"
       sodipodi:cx="306.12244"
       sodipodi:sides="4"
       id="path3864"
       style="fill:#ffffff;fill-opacity:1;fill-rule:nonzero;stroke:none;filter:url(#filter3789)"
       sodipodi:type="star" />
    <path
       sodipodi:type="star"
       style="fill:#ffffff;fill-opacity:1;fill-rule:nonzero;stroke:none;filter:url(#filter3789)"
       id="path3866"
       sodipodi:sides="4"
       sodipodi:cx="306.12244"
       sodipodi:cy="401.36053"
       sodipodi:r1="165.98639"
       sodipodi:r2="70.27932"
       sodipodi:arg1="1.5707963"
       sodipodi:arg2="-0.78539817"
       inkscape:flatsided="false"
       inkscape:rounded="0"
       inkscape:randomized="0"
       d="M 306.12244,567.34692 355.81742,351.66555 140.13605,401.36054 355.81742,451.05552 306.12243,235.37415 256.42745,451.05552 472.10883,401.36053 256.42745,351.66555 z"
       transform="matrix(0.05797971,0,0,0.06099321,395.85652,246.24924)" />
  </g>
</svg>
