<?xml version="1.0" encoding="UTF-8" standalone="no"?>
<!-- Created with Inkscape (http://www.inkscape.org/) -->

<svg
   xmlns:dc="http://purl.org/dc/elements/1.1/"
   xmlns:cc="http://creativecommons.org/ns#"
   xmlns:rdf="http://www.w3.org/1999/02/22-rdf-syntax-ns#"
   xmlns:svg="http://www.w3.org/2000/svg"
   xmlns="http://www.w3.org/2000/svg"
   xmlns:sodipodi="http://sodipodi.sourceforge.net/DTD/sodipodi-0.dtd"
   xmlns:inkscape="http://www.inkscape.org/namespaces/inkscape"
   width="64"
   height="64"
   id="svg4426"
   version="1.1"
   inkscape:version="0.48.3.1 r9886"
   sodipodi:docname="New document 9">
  <defs
     id="defs4428" />
  <sodipodi:namedview
     id="base"
     pagecolor="#ffffff"
     bordercolor="#666666"
     borderopacity="1.0"
     inkscape:pageopacity="0.0"
     inkscape:pageshadow="2"
     inkscape:zoom="9.1875"
     inkscape:cx="32"
     inkscape:cy="32"
     inkscape:document-units="px"
     inkscape:current-layer="layer1"
     showgrid="false"
     inkscape:window-width="1366"
     inkscape:window-height="718"
     inkscape:window-x="0"
     inkscape:window-y="0"
     inkscape:window-maximized="1" />
  <metadata
     id="metadata4431">
    <rdf:RDF>
      <cc:Work
         rdf:about="">
        <dc:format>image/svg+xml</dc:format>
        <dc:type
           rdf:resource="http://purl.org/dc/dcmitype/StillImage" />
        <dc:title></dc:title>
      </cc:Work>
    </rdf:RDF>
  </metadata>
  <g
     inkscape:label="Layer 1"
     inkscape:groupmode="layer"
     id="layer1"
     transform="translate(0,-988.36218)">
    <path
       style="fill:#808080;fill-opacity:1;stroke:none"
       d="m 25.795918,29.714286 -5.006802,1.197279 c 0,0 -0.979592,4.136054 -0.217687,10.557823 l 5.224489,2.394558 z"
       id="path4958"
       inkscape:connector-curvature="0"
       transform="translate(0,988.36218)" />
    <path
       inkscape:connector-curvature="0"
       id="path4960"
       d="m 39.546602,1018.0765 5.006802,1.1972 c 0,0 0.979592,4.1361 0.217687,10.5579 l -5.224489,2.3945 z"
       style="fill:#808080;fill-opacity:1;stroke:none" />
    <path
       style="fill:#545454;fill-opacity:1;stroke:none"
       d="m 30.973578,1011.4822 -6.518898,4.2643 c 0,0 -1.858042,9.1697 0.318082,17.7306 0,0 3.689674,8.6466 7.064884,8.4779 3.375179,-0.1688 8.28595,-8.3751 8.28595,-8.3751 0,0 2.383909,-10.0244 1.091864,-17.6116 l -6.041438,-4.5768 c 0,0 -1.665596,-8.0388 0.69768,-13.1412 l 3.031024,-0.17263 0.0602,-2.30557 -3.889529,-0.009 -0.52066,-2.6907 -1.928133,0.0473 -0.474746,2.43862 -4.478082,0.29415 0.04344,2.27231 3.893377,-0.33511 c 0,0 1.985593,4.04953 -0.635011,13.69263 z"
       id="path4956"
       inkscape:connector-curvature="0"
       sodipodi:nodetypes="cccscccccccccccccc" />
    <path
       sodipodi:type="arc"
       style="opacity:0.80081301999999999;fill:none;fill-opacity:1;stroke:#6f6f6f;stroke-opacity:1"
       id="path4434"
       sodipodi:cx="32.217686"
       sodipodi:cy="32.108845"
       sodipodi:rx="31.129251"
       sodipodi:ry="31.129251"
       d="m 63.346937,32.108845 a 31.129251,31.129251 0 1 1 -62.2585028,0 31.129251,31.129251 0 1 1 62.2585028,0 z"
       transform="translate(0,988.36218)" />
    <path
       transform="matrix(0.97902098,0,0,0.97552448,0.78473905,989.14806)"
       d="m 63.346937,32.108845 a 31.129251,31.129251 0 1 1 -62.2585028,0 31.129251,31.129251 0 1 1 62.2585028,0 z"
       sodipodi:ry="31.129251"
       sodipodi:rx="31.129251"
       sodipodi:cy="32.108845"
       sodipodi:cx="32.217686"
       id="path4944"
       style="opacity:0.80081301999999999;fill:none;stroke:#9d9d9d;stroke-width:1.02325749000000021;stroke-opacity:1"
       sodipodi:type="arc" />
    <path
       style="opacity:0.80081302;fill:none;stroke:#9d9d9d;stroke-width:1;stroke-linecap:round;stroke-linejoin:round;stroke-miterlimit:4;stroke-opacity:1;stroke-dasharray:none"
       d="M 8.707483,49.959184 57.142857,14.911565"
       id="path4946"
       inkscape:connector-curvature="0"
       transform="translate(0,988.36218)" />
    <path
       inkscape:connector-curvature="0"
       id="path4948"
       d="m 3.3666929,1016.3392 59.1169541,8.9167"
       style="opacity:0.80081302;fill:none;stroke:#9d9d9d;stroke-width:1;stroke-linecap:round;stroke-linejoin:round;stroke-miterlimit:4;stroke-opacity:1;stroke-dasharray:none" />
    <path
       style="fill:#a7d8ff;fill-opacity:1;stroke:none"
       d="m 26.122449,41.034014 -0.108844,3.482993 c 0,0 5.22449,8.598639 12.625851,0.32653 l 0.217687,-4.02721 c 0,0 -5.006803,3.918368 -12.734694,0.217687 z"
       id="path4962"
       inkscape:connector-curvature="0"
       transform="translate(0,988.36218)" />
    <path
       style="opacity:0.80081302;fill:none;stroke:#9d9d9d;stroke-width:1;stroke-linecap:round;stroke-linejoin:round;stroke-miterlimit:4;stroke-opacity:1;stroke-dasharray:none"
       d="m 13.541027,998.04155 38.768286,45.51195"
       id="path4950"
       inkscape:connector-curvature="0" />
    <path
       inkscape:connector-curvature="0"
       id="path4952"
       d="m 29.506654,991.10084 6.837032,59.39336"
       style="opacity:0.80081302;fill:none;stroke:#9d9d9d;stroke-width:1;stroke-linecap:round;stroke-linejoin:round;stroke-miterlimit:4;stroke-opacity:1;stroke-dasharray:none" />
    <path
       style="opacity:0.80081302;fill:none;stroke:#9d9d9d;stroke-width:1;stroke-linecap:round;stroke-linejoin:round;stroke-miterlimit:4;stroke-opacity:1;stroke-dasharray:none"
       d="M 45.104148,993.49822 20.746192,1048.0968"
       id="path4954"
       inkscape:connector-curvature="0" />
  </g>
</svg>
