<?xml version="1.0" encoding="UTF-8" standalone="no"?>
<!-- Created with Inkscape (http://www.inkscape.org/) -->

<svg
   xmlns:dc="http://purl.org/dc/elements/1.1/"
   xmlns:cc="http://creativecommons.org/ns#"
   xmlns:rdf="http://www.w3.org/1999/02/22-rdf-syntax-ns#"
   xmlns:svg="http://www.w3.org/2000/svg"
   xmlns="http://www.w3.org/2000/svg"
   xmlns:sodipodi="http://sodipodi.sourceforge.net/DTD/sodipodi-0.dtd"
   xmlns:inkscape="http://www.inkscape.org/namespaces/inkscape"
   width="32"
   height="32"
   id="svg2"
   version="1.1"
   inkscape:version="0.48.3.1 r9886"
   sodipodi:docname="New document 1">
  <defs
     id="defs4">
    <filter
       inkscape:collect="always"
       id="filter3775"
       x="-0.12665583"
       width="1.2533117"
       y="-0.11400878"
       height="1.2280176">
      <feGaussianBlur
         inkscape:collect="always"
         stdDeviation="0.3412508"
         id="feGaussianBlur3777" />
    </filter>
    <filter
       inkscape:collect="always"
       id="filter3779"
       x="-0.16754925"
       width="1.3350985"
       y="-0.15514926"
       height="1.3102985">
      <feGaussianBlur
         inkscape:collect="always"
         stdDeviation="0.3412508"
         id="feGaussianBlur3781" />
    </filter>
  </defs>
  <sodipodi:namedview
     id="base"
     pagecolor="#ffffff"
     bordercolor="#666666"
     borderopacity="1.0"
     inkscape:pageopacity="0.0"
     inkscape:pageshadow="2"
     inkscape:zoom="1"
     inkscape:cx="6.2040816"
     inkscape:cy="4.849327"
     inkscape:document-units="px"
     inkscape:current-layer="layer1"
     showgrid="false"
     inkscape:window-width="1366"
     inkscape:window-height="718"
     inkscape:window-x="0"
     inkscape:window-y="0"
     inkscape:window-maximized="1" />
  <metadata
     id="metadata7">
    <rdf:RDF>
      <cc:Work
         rdf:about="">
        <dc:format>image/svg+xml</dc:format>
        <dc:type
           rdf:resource="http://purl.org/dc/dcmitype/StillImage" />
        <dc:title></dc:title>
      </cc:Work>
    </rdf:RDF>
  </metadata>
  <g
     inkscape:label="Layer 1"
     inkscape:groupmode="layer"
     id="layer1"
     transform="translate(0,-1020.3622)">
    <path
       style="opacity:1;fill:#bbbbbb;fill-opacity:1;stroke:none"
       d="m 9.414966,19.265306 3.918367,6.693878 5.278912,-0.05442 3.918367,-6.258503 -6.585034,-4.190477 z"
       id="path2989"
       inkscape:connector-curvature="0"
       transform="translate(0,1020.3622)" />
    <path
       style="fill:#888888;fill-opacity:1;stroke:none"
       d="M 16.054422,0.16326531 0.21768708,16.653061 5.0068027,29.333333 16.054422,17.2517 26.340136,29.823129 31.619048,17.2517 z"
       id="path2985"
       inkscape:connector-curvature="0"
       transform="translate(0,1020.3622)"
       sodipodi:nodetypes="ccccccc" />
    <path
       style="fill:#c0d9ff;fill-opacity:1;stroke:none"
       d="M 16,1.9047619 9.0884354,13.986395 15.836735,21.115646 22.47619,13.986395 z"
       id="path2987"
       inkscape:connector-curvature="0"
       transform="translate(0,1020.3622)"
       sodipodi:nodetypes="ccccc" />
    <path
       style="fill:#ff0000;fill-opacity:1;stroke:none"
       d="M 14.585034,2.7755102 7.292517,13.931973 12.244898,19.156463 5.4421769,27.755102 8.5442177,19.809524 4.1904762,14.040816 z"
       id="path3759"
       inkscape:connector-curvature="0"
       transform="translate(0,1020.3622)" />
    <path
       inkscape:connector-curvature="0"
       id="path3761"
       d="m 17.142857,1023.1921 7.292517,11.1565 -4.952381,5.2245 6.802721,8.5986 -3.102041,-7.9456 4.353742,-5.7687 z"
       style="fill:#ff0000;fill-opacity:1;stroke:none" />
    <path
       style="opacity:0.7;fill:#ff9600;fill-opacity:1;stroke:none;filter:url(#filter3775)"
       d="m 14.367347,1045.0697 c 0,0 -2.884354,1.7415 -0.870748,4.517 l 0.598639,-1.415 c 0,0 1.088436,1.2517 0.435374,2.5578 0,0 0.761905,-0.3809 0.870749,-1.1428 0,0 -0.761905,1.3061 0.816326,2.5578 0,0 -0.653061,-2.9932 0.380953,-3.5374 0,0 1.469387,0.8707 1.034013,1.9592 0,0 1.034014,-1.415 0,-3.6463 0,0 1.414966,0.054 1.52381,1.5783 0,0 0.598639,-1.6327 -1.251701,-3.5375"
       id="path3763"
       inkscape:connector-curvature="0" />
    <path
       inkscape:connector-curvature="0"
       id="path3765"
       d="m 17.180068,1045.0953 c 0,0 2.180375,1.2797 0.658226,3.3192 l -0.45253,-1.0397 c 0,0 -0.822784,0.9198 -0.329113,1.8796 0,0 -0.575949,-0.28 -0.658227,-0.8399 0,0 0.575948,0.9598 -0.617087,1.8796 0,0 0.493669,-2.1994 -0.287975,-2.5994 0,0 -1.110756,0.6399 -0.781643,1.4397 0,0 -0.781644,-1.0397 0,-2.6794 0,0 -1.069618,0.04 -1.151897,1.1597 0,0 -0.45253,-1.1997 0.946201,-2.5994"
       style="opacity:0.7;fill:#ffee00;fill-opacity:1;stroke:none;filter:url(#filter3779)" />
  </g>
</svg>
